<svg width="378" height="115" viewBox="0 0 378 115" fill="none" xmlns="http://www.w3.org/2000/svg">
<path d="M20.5413 35.275H54.6317L45.1065 50.4625H34.5785V71.2187L20.5413 89.95V35.275Z" fill="white"/>
<path d="M34.5785 76.7875L20.5413 94H34.5785V76.7875Z" fill="url(#paint0_linear_230_2)"/>
<path d="M5 13H64.157C82.7063 13 87.7196 29.2 83.7089 35.275C79.6983 41.35 38.0878 94 38.0878 94V71.2187C38.0878 71.2187 61.149 40.135 64.157 35.275C67.165 30.415 65.661 28.6937 57.1384 28.6937H20.5413L5 13Z" fill="white"/>
<path d="M113.066 53.1001V30.0921H131.626C132.437 30.0921 133.183 30.2948 133.866 30.7001C134.549 31.1054 135.093 31.6494 135.498 32.3321C135.903 32.9934 136.106 33.7294 136.106 34.5401V40.7481C136.106 41.5588 135.903 42.3054 135.498 42.9881C135.093 43.6708 134.549 44.2148 133.866 44.6201C133.183 45.0041 132.437 45.1961 131.626 45.1961L117.29 45.2281V53.1001H113.066ZM117.674 40.9401H131.434C131.541 40.9401 131.637 40.9081 131.722 40.8441C131.807 40.7801 131.85 40.6948 131.85 40.5881V34.7001C131.85 34.5934 131.807 34.5081 131.722 34.4441C131.637 34.3588 131.541 34.3161 131.434 34.3161H117.674C117.567 34.3161 117.471 34.3588 117.386 34.4441C117.322 34.5081 117.29 34.5934 117.29 34.7001V40.5881C117.29 40.6948 117.322 40.7801 117.386 40.8441C117.471 40.9081 117.567 40.9401 117.674 40.9401ZM148.171 53.1001V30.0601H152.363V53.1001H148.171ZM165.702 53.1001V30.0601H170.342L184.486 46.8921V30.0601H188.742V53.1001H184.102L169.926 36.2361V53.1001H165.702ZM202.631 53.1001V34.5081C202.631 33.6974 202.834 32.9614 203.239 32.3001C203.645 31.6174 204.178 31.0734 204.839 30.6681C205.522 30.2628 206.269 30.0601 207.079 30.0601H221.191C222.002 30.0601 222.749 30.2628 223.431 30.6681C224.114 31.0734 224.658 31.6174 225.063 32.3001C225.469 32.9614 225.671 33.6974 225.671 34.5081V53.1001H221.415V45.3561H206.855V53.1001H202.631ZM206.855 41.1321H221.415V34.7001C221.415 34.5934 221.373 34.5081 221.287 34.4441C221.202 34.3588 221.106 34.3161 220.999 34.3161H207.239C207.133 34.3161 207.037 34.3588 206.951 34.4441C206.887 34.5081 206.855 34.5934 206.855 34.7001V41.1321ZM247.813 53.1001V34.3161H238.405V30.0601H261.445V34.3161H252.069V53.1001H247.813ZM292.447 53.1001L285.503 44.8121H291.039L297.055 51.9161V53.1001H292.447ZM274.079 53.1001V30.0921H292.639C293.449 30.0921 294.196 30.2948 294.879 30.7001C295.561 31.1054 296.105 31.6494 296.511 32.3321C296.916 32.9934 297.119 33.7294 297.119 34.5401V40.7481C297.119 41.5588 296.916 42.3054 296.511 42.9881C296.105 43.6708 295.561 44.2148 294.879 44.6201C294.196 45.0041 293.449 45.1961 292.639 45.1961L278.303 45.2281V53.1001H274.079ZM278.687 40.9401H292.447C292.553 40.9401 292.649 40.9081 292.735 40.8441C292.82 40.7801 292.863 40.6948 292.863 40.5881V34.7001C292.863 34.5934 292.82 34.5081 292.735 34.4441C292.649 34.3588 292.553 34.3161 292.447 34.3161H278.687C278.58 34.3161 278.484 34.3588 278.399 34.4441C278.335 34.5081 278.303 34.5934 278.303 34.7001V40.5881C278.303 40.6948 278.335 40.7801 278.399 40.8441C278.484 40.9081 278.58 40.9401 278.687 40.9401ZM310.277 53.1001V30.0601H314.469V53.1001H310.277ZM327.489 53.1001V51.9161L336.161 41.5801L327.489 31.2441V30.0601H332.065L338.977 38.2521L345.825 30.0601H350.433V31.2441L341.729 41.5801L350.433 51.8841V53.1001H345.825L338.945 44.9401L332.065 53.1001H327.489Z" fill="white"/>
<path d="M193.801 74C193.537 74 193.293 73.936 193.069 73.808C192.853 73.68 192.681 73.508 192.553 73.292C192.425 73.068 192.361 72.824 192.361 72.56V72.224H193.333V72.56C193.333 72.688 193.377 72.8 193.465 72.896C193.561 72.984 193.673 73.028 193.801 73.028H199.561C199.689 73.028 199.797 72.984 199.885 72.896C199.981 72.8 200.029 72.688 200.029 72.56V70.628C200.029 70.5 199.981 70.392 199.885 70.304C199.797 70.216 199.689 70.172 199.561 70.172H193.801C193.537 70.172 193.293 70.108 193.069 69.98C192.853 69.844 192.681 69.668 192.553 69.452C192.425 69.236 192.361 68.996 192.361 68.732V66.8C192.361 66.536 192.425 66.296 192.553 66.08C192.681 65.856 192.853 65.68 193.069 65.552C193.293 65.424 193.537 65.36 193.801 65.36H199.561C199.825 65.36 200.065 65.424 200.281 65.552C200.505 65.68 200.681 65.856 200.809 66.08C200.937 66.296 201.001 66.536 201.001 66.8V67.136H200.029V66.8C200.029 66.672 199.981 66.564 199.885 66.476C199.797 66.38 199.689 66.332 199.561 66.332H193.801C193.673 66.332 193.561 66.38 193.465 66.476C193.377 66.564 193.333 66.672 193.333 66.8V68.732C193.333 68.86 193.377 68.968 193.465 69.056C193.561 69.144 193.673 69.188 193.801 69.188H199.561C199.825 69.188 200.065 69.256 200.281 69.392C200.505 69.52 200.681 69.692 200.809 69.908C200.937 70.124 201.001 70.364 201.001 70.628V72.56C201.001 72.824 200.937 73.068 200.809 73.292C200.681 73.508 200.505 73.68 200.281 73.808C200.065 73.936 199.825 74 199.561 74H193.801ZM208.015 74V70.748L204.043 65.36H205.159L208.507 69.584L211.819 65.36H212.959L208.987 70.748V74H208.015ZM217.117 74C216.853 74 216.609 73.936 216.385 73.808C216.169 73.68 215.997 73.508 215.869 73.292C215.741 73.068 215.677 72.824 215.677 72.56V72.224H216.649V72.56C216.649 72.688 216.693 72.8 216.781 72.896C216.877 72.984 216.989 73.028 217.117 73.028H222.877C223.005 73.028 223.113 72.984 223.201 72.896C223.297 72.8 223.345 72.688 223.345 72.56V70.628C223.345 70.5 223.297 70.392 223.201 70.304C223.113 70.216 223.005 70.172 222.877 70.172H217.117C216.853 70.172 216.609 70.108 216.385 69.98C216.169 69.844 215.997 69.668 215.869 69.452C215.741 69.236 215.677 68.996 215.677 68.732V66.8C215.677 66.536 215.741 66.296 215.869 66.08C215.997 65.856 216.169 65.68 216.385 65.552C216.609 65.424 216.853 65.36 217.117 65.36H222.877C223.141 65.36 223.381 65.424 223.597 65.552C223.821 65.68 223.997 65.856 224.125 66.08C224.253 66.296 224.317 66.536 224.317 66.8V67.136H223.345V66.8C223.345 66.672 223.297 66.564 223.201 66.476C223.113 66.38 223.005 66.332 222.877 66.332H217.117C216.989 66.332 216.877 66.38 216.781 66.476C216.693 66.564 216.649 66.672 216.649 66.8V68.732C216.649 68.86 216.693 68.968 216.781 69.056C216.877 69.144 216.989 69.188 217.117 69.188H222.877C223.141 69.188 223.381 69.256 223.597 69.392C223.821 69.52 223.997 69.692 224.125 69.908C224.253 70.124 224.317 70.364 224.317 70.628V72.56C224.317 72.824 224.253 73.068 224.125 73.292C223.997 73.508 223.821 73.68 223.597 73.808C223.381 73.936 223.141 74 222.877 74H217.117ZM231.172 74V66.332H227.332V65.36H235.972V66.332H232.144V74H231.172ZM239.053 74V65.36H246.937V66.332H240.025V69.188H245.581V70.172H240.025V73.028H246.937V74H239.053ZM250.025 74V65.36H251.357L254.945 69.632L258.533 65.36H259.865V74H258.893V66.464L254.945 71.156L250.997 66.464V74H250.025ZM264.698 74C264.434 74 264.19 73.936 263.966 73.808C263.75 73.68 263.578 73.508 263.45 73.292C263.322 73.068 263.258 72.824 263.258 72.56V72.224H264.23V72.56C264.23 72.688 264.274 72.8 264.362 72.896C264.458 72.984 264.57 73.028 264.698 73.028H270.458C270.586 73.028 270.694 72.984 270.782 72.896C270.878 72.8 270.926 72.688 270.926 72.56V70.628C270.926 70.5 270.878 70.392 270.782 70.304C270.694 70.216 270.586 70.172 270.458 70.172H264.698C264.434 70.172 264.19 70.108 263.966 69.98C263.75 69.844 263.578 69.668 263.45 69.452C263.322 69.236 263.258 68.996 263.258 68.732V66.8C263.258 66.536 263.322 66.296 263.45 66.08C263.578 65.856 263.75 65.68 263.966 65.552C264.19 65.424 264.434 65.36 264.698 65.36H270.458C270.722 65.36 270.962 65.424 271.178 65.552C271.402 65.68 271.578 65.856 271.706 66.08C271.834 66.296 271.898 66.536 271.898 66.8V67.136H270.926V66.8C270.926 66.672 270.878 66.564 270.782 66.476C270.694 66.38 270.586 66.332 270.458 66.332H264.698C264.57 66.332 264.458 66.38 264.362 66.476C264.274 66.564 264.23 66.672 264.23 66.8V68.732C264.23 68.86 264.274 68.968 264.362 69.056C264.458 69.144 264.57 69.188 264.698 69.188H270.458C270.722 69.188 270.962 69.256 271.178 69.392C271.402 69.52 271.578 69.692 271.706 69.908C271.834 70.124 271.898 70.364 271.898 70.628V72.56C271.898 72.824 271.834 73.068 271.706 73.292C271.578 73.508 271.402 73.68 271.178 73.808C270.962 73.936 270.722 74 270.458 74H264.698Z" fill="white"/>
<rect x="354.938" y="70.02" width="79.1975" height="0.93" transform="rotate(-180 354.938 70.02)" fill="url(#paint1_linear_230_2)"/>
<path d="M108.322 69.0898H187.52V70.0198H108.322V69.0898Z" fill="url(#paint2_linear_230_2)"/>
<defs>
<linearGradient id="paint0_linear_230_2" x1="45" y1="13" x2="45" y2="94" gradientUnits="userSpaceOnUse">
<stop offset="0.336538" stop-color="#2EE8FF"/>
<stop offset="0.793269" stop-color="#5BFFFF"/>
<stop offset="1" stop-color="#009DFF"/>
</linearGradient>
<linearGradient id="paint1_linear_230_2" x1="354.938" y1="70.485" x2="434.135" y2="70.485" gradientUnits="userSpaceOnUse">
<stop stop-color="white"/>
<stop offset="1" stop-color="#00C0E8"/>
</linearGradient>
<linearGradient id="paint2_linear_230_2" x1="108.322" y1="69.5548" x2="187.52" y2="69.5548" gradientUnits="userSpaceOnUse">
<stop stop-color="white"/>
<stop offset="1" stop-color="#00C0E8"/>
</linearGradient>
</defs>
</svg>
